Coordinates
version=1
nRows=15
nColumns=34
inDegrees=yes

Units are S.I. units (second, meters, Newtons, ...)
If the header above contains a line with 'inDegrees', this indicates whether rotational values are in degrees (yes) or radians (no).

endheader
time	pelvis_tilt	pelvis_list	pelvis_rotation	pelvis_tx	pelvis_ty	pelvis_tz	hip_flexion_r	hip_adduction_r	hip_rotation_r	knee_angle_r	ankle_angle_r	subtalar_angle_r	mtp_angle_r	hip_flexion_l	hip_adduction_l	hip_rotation_l	knee_angle_l	ankle_angle_l	subtalar_angle_l	mtp_angle_l	lumbar_extension	lumbar_bending	lumbar_rotation	arm_flex_r	arm_add_r	arm_rot_r	elbow_flex_r	pro_sup_r	arm_flex_l	arm_add_l	arm_rot_l	elbow_flex_l	pro_sup_l
      0.00000000	      2.91468789	     -1.94196326	      3.28368335	     -0.20409150	      0.92714227	     -0.06259918	     -1.24682838	      0.68131721	    -14.52819280	      0.59500638	      1.09720216	     -9.89868644	      0.00000000	     -1.43948947	     -4.02136119	    -11.63309047	      0.85301034	      3.26484313	     -9.66736510	      0.00000000	     -5.74376085	      3.11359485	     -2.99382731	      4.30321475	     -8.70643255	     13.60584176	     25.83639640	     81.66642039	      3.98562126	     -6.78752467	      8.73951921	     25.07751891	     74.54308167
      0.01666670	      1.66980085	     -0.99750016	      2.91435816	     -0.20157303	      0.92509118	     -0.06287573	      0.31375987	     -0.17818084	    -16.09592753	      0.76093150	      3.43438132	     -7.53523045	      0.00000000	     -0.20860744	     -2.74077252	    -15.77723584	      0.94547820	      5.40290946	     -7.44615533	      0.00000000	     -3.41442378	      2.03971593	     -2.69479976	      3.68960035	     -7.90015117	      9.46432201	     25.07735348	     80.90064131	      3.51945515	     -6.32088633	      6.17563622	     25.20694289	     74.37207749
      0.03333330	      0.75214863	      0.05187979	      2.09516940	     -0.20045756	      0.92420189	     -0.06135724	      1.01596949	     -1.02373895	    -17.08934892	      0.00000000	      3.71220690	     -6.40953704	      0.00000000	      0.34266598	     -1.47589311	    -18.17744150	      0.41143614	      5.19939834	     -6.49258362	      0.00000000	     -1.92143825	      0.75966907	     -2.01834204	      3.09858528	     -7.37286955	      7.76653676	     25.49595623	     80.69192185	      3.12013153	     -6.46979245	      5.31005721	     25.05990602	     74.27335494
      0.05000000	      0.92697315	      0.60320383	      1.79183436	     -0.20108311	      0.92565514	     -0.06072532	      0.89923859	     -1.61483079	    -18.30082140	      0.00000000	      4.62993090	     -3.84787440	      0.00000000	     -0.10346842	     -0.83066286	    -19.78286892	      0.00000000	      5.60248201	     -5.16127948	      0.00000000	     -2.14324650	      0.00048776	     -1.30758810	      2.64002380	     -7.02361867	      5.52896334	     26.17196600	     80.40700307	      3.25946293	     -6.64433666	      4.76296711	     25.05786258	     74.19788327
      0.06666670	      0.85386302	      0.74100912	      1.75061533	     -0.20400768	      0.92577586	     -0.05996335	      1.07524930	     -1.70956084	    -18.46804548	      0.00000000	      4.64405684	     -3.83316576	      0.00000000	      0.05678575	     -0.68967995	    -20.08923524	      0.00000000	      5.46430734	     -5.20016539	      0.00000000	     -2.24665456	      0.01562956	     -1.20238583	      2.85736008	     -6.92292552	      5.52253507	     26.29298296	     80.40834921	      3.38692825	     -6.72318304	      4.75820505	     25.08359120	     74.19740667
      0.08333330	      0.79219148	      0.83681476	      1.51487136	     -0.20412329	      0.92641523	     -0.05966153	      1.21167594	     -1.76696487	    -18.67710955	      0.00000000	      5.02174144	     -2.39797549	      0.00000000	      0.17807468	     -0.60157053	    -21.29745033	      0.00000000	      4.96053484	     -4.44705548	      0.00000000	     -2.29447062	     -0.20599775	     -0.61407440	      2.62093543	     -7.08565662	      5.59204924	     26.86937571	     80.37468548	      3.73872898	     -6.67469086	      4.97276137	     25.13792652	     74.16293831
      0.10000000	      0.75461103	      0.87094690	      1.59427857	     -0.20616959	      0.92566255	     -0.05943706	      1.31659522	     -1.80016352	    -18.71930525	      0.00000000	      4.91770876	     -2.28025096	      0.00000000	      0.33362128	     -0.57195501	    -21.48914466	      0.00000000	      4.84352116	     -4.42038212	      0.00000000	     -2.43450516	     -0.25810087	     -0.64786741	      2.91657349	     -7.03408727	      5.61887779	     27.00856639	     80.37043920	      4.14268532	     -6.68187732	      4.98071257	     25.22272581	     74.15622921
      0.11666670	      0.94757776	      0.90256231	      1.57494528	     -0.20705203	      0.92577050	     -0.05944567	      1.15755607	     -1.82890649	    -18.86140285	      0.00000000	      4.58968851	     -1.80913239	      0.00000000	      0.22557396	     -0.54835657	    -22.01585115	      0.00000000	      4.21806578	     -4.18635032	      0.00000000	     -2.89569000	     -0.32535787	     -0.52987218	      3.18560145	     -7.08350201	      5.84209677	     27.24626040	     80.36038130	      4.56959009	     -6.67821750	      5.02309766	     25.11802284	     74.10562732
      0.13333330	      0.93191631	      0.89836800	      1.70471633	     -0.20680248	      0.92629162	     -0.05960973	      1.15596170	     -1.82998644	    -18.84986051	      0.00000000	      4.56814115	     -1.75446162	      0.00000000	      0.30251370	     -0.54827075	    -22.12893473	      0.00000000	      4.17907587	     -4.19038778	      0.00000000	     -2.99574500	     -0.31085447	     -0.54074173	      3.29254327	     -7.06066007	      5.87568739	     27.29436449	     80.36092813	      4.76706347	     -6.65395889	      5.02528079	     25.15534498	     74.09933855
      0.15000000	      0.99070058	      0.90378378	      1.69841190	     -0.20648999	      0.92774459	     -0.05951556	      1.09466330	     -1.83299167	    -18.96274939	      0.00000000	      4.29161600	     -1.52571219	      0.00000000	      0.28702732	     -0.55542538	    -22.50398929	      0.00000000	      3.67711597	     -4.07344695	      0.00000000	     -3.41148403	     -0.35698078	     -0.56687229	      3.48833834	     -7.08089850	      6.01283042	     27.41548390	     80.36753864	      5.18500756	     -6.62983882	      5.02747397	     25.14031446	     74.07027171
      0.16666670	      1.81122215	      0.92855435	      1.56735978	     -0.20613226	      0.93003952	     -0.05931743	      0.16336998	     -1.83207377	    -19.29674020	      0.00000000	      4.26116718	     -0.80746447	      0.00000000	     -0.62878514	     -0.56343723	    -23.00813528	      0.00000000	      3.28353621	     -3.63427582	      0.00000000	     -4.51849753	     -0.38046678	     -0.33538285	      3.58004227	     -7.39890904	      6.82355548	     27.80097994	     80.40279125	      5.68350831	     -6.54658349	      5.10254924	     24.56702457	     73.88712971
      0.18333330	      1.78369110	      0.93598567	      1.55832909	     -0.20582194	      0.92933653	     -0.05913019	      0.12512175	     -1.82969985	    -19.29983407	      0.00000000	      4.25702158	     -0.80624343	      0.00000000	     -0.61656970	     -0.56266963	    -23.01231351	      0.00000000	      3.27893785	     -3.63347912	      0.00000000	     -4.52305094	     -0.37841657	     -0.33854952	      3.57616894	     -7.39825764	      6.82519712	     27.80017229	     80.40275813	      5.68527720	     -6.54552611	      5.10300867	     24.56658305	     73.88679001
      0.20000000	      1.91397996	      0.99137463	      1.51859904	     -0.20503173	      0.92752037	     -0.05895477	     -0.08013512	     -1.87887935	    -19.59152948	      0.00000000	      3.92528999	     -0.67916499	      0.00000000	     -0.77532508	     -0.51818902	    -23.45888911	      0.00000000	      2.76537002	     -3.48806360	      0.00000000	     -4.63890763	     -0.43843266	     -0.41454819	      3.47485058	     -7.42323547	      6.97057707	     27.85782128	     80.40416271	      5.65272946	     -6.56815427	      5.12734726	     24.42229820	     73.84707522
      0.21666670	      1.88622676	      0.99642560	      1.50762304	     -0.20341379	      0.92657167	     -0.05912680	     -0.11866218	     -1.87600615	    -19.59245193	      0.00000000	      3.92425621	     -0.67846526	      0.00000000	     -0.76702416	     -0.52059668	    -23.45843645	      0.00000000	      2.76416769	     -3.48517845	      0.00000000	     -4.64739517	     -0.43837409	     -0.41537342	      3.47362602	     -7.42716033	      6.97149605	     27.85757580	     80.40412216	      5.65054821	     -6.56822155	      5.12758682	     24.41944749	     73.84660532
      0.23333330	      1.88609610	      1.00190447	      1.49722416	     -0.20459796	      0.92656693	     -0.05875529	     -0.12911891	     -1.87304353	    -19.59564322	      0.00000000	      3.92562864	     -0.67893639	      0.00000000	     -0.76654663	     -0.52247127	    -23.45774075	      0.00000000	      2.76429094	     -3.48124405	      0.00000000	     -4.64990883	     -0.43831368	     -0.41706952	      3.46518173	     -7.43544254	      6.97188179	     27.85544887	     80.40404645	      5.63904893	     -6.56806341	      5.12800767	     24.41361408	     73.84614087
